<mxfile host="app.diagrams.net" agent="Mozilla/5.0 (Windows NT 10.0; Win64; x64) AppleWebKit/537.36 (KHTML, like Gecko) Chrome/132.0.0.0 Safari/537.36" version="26.0.10">
  <diagram name="Pagina-1" id="e4h8mPv8OiZ0_XORUbIF">
    <mxGraphModel dx="1000" dy="1699" grid="1" gridSize="10" guides="1" tooltips="1" connect="1" arrows="1" fold="1" page="1" pageScale="1" pageWidth="827" pageHeight="1169" math="0" shadow="0">
      <root>
        <mxCell id="0" />
        <mxCell id="1" parent="0" />
        <mxCell id="JRqboRrcjH9pOQVbMiWF-3" style="edgeStyle=orthogonalEdgeStyle;rounded=0;orthogonalLoop=1;jettySize=auto;html=1;exitX=0.5;exitY=1;exitDx=0;exitDy=0;entryX=0.5;entryY=0;entryDx=0;entryDy=0;" edge="1" parent="1" source="JRqboRrcjH9pOQVbMiWF-1" target="JRqboRrcjH9pOQVbMiWF-2">
          <mxGeometry relative="1" as="geometry" />
        </mxCell>
        <mxCell id="JRqboRrcjH9pOQVbMiWF-1" value="Start" style="ellipse;whiteSpace=wrap;html=1;" vertex="1" parent="1">
          <mxGeometry x="359" y="-220" width="112" height="90" as="geometry" />
        </mxCell>
        <mxCell id="JRqboRrcjH9pOQVbMiWF-6" style="edgeStyle=orthogonalEdgeStyle;rounded=0;orthogonalLoop=1;jettySize=auto;html=1;" edge="1" parent="1" source="JRqboRrcjH9pOQVbMiWF-2" target="JRqboRrcjH9pOQVbMiWF-4">
          <mxGeometry relative="1" as="geometry" />
        </mxCell>
        <mxCell id="JRqboRrcjH9pOQVbMiWF-2" value="read n" style="shape=parallelogram;perimeter=parallelogramPerimeter;whiteSpace=wrap;html=1;fixedSize=1;" vertex="1" parent="1">
          <mxGeometry x="354" y="100" width="120" height="60" as="geometry" />
        </mxCell>
        <mxCell id="JRqboRrcjH9pOQVbMiWF-7" value="True" style="edgeStyle=orthogonalEdgeStyle;rounded=0;orthogonalLoop=1;jettySize=auto;html=1;exitX=0.5;exitY=1;exitDx=0;exitDy=0;entryX=0.5;entryY=0;entryDx=0;entryDy=0;" edge="1" parent="1" source="JRqboRrcjH9pOQVbMiWF-4" target="JRqboRrcjH9pOQVbMiWF-5">
          <mxGeometry relative="1" as="geometry" />
        </mxCell>
        <mxCell id="JRqboRrcjH9pOQVbMiWF-9" style="edgeStyle=orthogonalEdgeStyle;rounded=0;orthogonalLoop=1;jettySize=auto;html=1;" edge="1" parent="1" source="JRqboRrcjH9pOQVbMiWF-4">
          <mxGeometry relative="1" as="geometry">
            <mxPoint x="60" y="270" as="targetPoint" />
          </mxGeometry>
        </mxCell>
        <mxCell id="JRqboRrcjH9pOQVbMiWF-10" value="False" style="edgeLabel;html=1;align=center;verticalAlign=middle;resizable=0;points=[];" vertex="1" connectable="0" parent="JRqboRrcjH9pOQVbMiWF-9">
          <mxGeometry x="-0.2837" y="3" relative="1" as="geometry">
            <mxPoint as="offset" />
          </mxGeometry>
        </mxCell>
        <mxCell id="JRqboRrcjH9pOQVbMiWF-4" value="i &amp;lt;= 10" style="rhombus;whiteSpace=wrap;html=1;" vertex="1" parent="1">
          <mxGeometry x="370" y="230" width="84" height="80" as="geometry" />
        </mxCell>
        <mxCell id="JRqboRrcjH9pOQVbMiWF-14" value="True" style="edgeStyle=orthogonalEdgeStyle;rounded=0;orthogonalLoop=1;jettySize=auto;html=1;" edge="1" parent="1" source="JRqboRrcjH9pOQVbMiWF-5" target="JRqboRrcjH9pOQVbMiWF-11">
          <mxGeometry relative="1" as="geometry" />
        </mxCell>
        <mxCell id="JRqboRrcjH9pOQVbMiWF-5" value="n&amp;gt;0" style="rhombus;whiteSpace=wrap;html=1;" vertex="1" parent="1">
          <mxGeometry x="374" y="370" width="80" height="80" as="geometry" />
        </mxCell>
        <mxCell id="JRqboRrcjH9pOQVbMiWF-19" value="True" style="edgeStyle=orthogonalEdgeStyle;rounded=0;orthogonalLoop=1;jettySize=auto;html=1;entryX=0.5;entryY=0;entryDx=0;entryDy=0;" edge="1" parent="1" source="JRqboRrcjH9pOQVbMiWF-11" target="JRqboRrcjH9pOQVbMiWF-16">
          <mxGeometry relative="1" as="geometry" />
        </mxCell>
        <mxCell id="JRqboRrcjH9pOQVbMiWF-11" value="Count pos = 0" style="rounded=0;whiteSpace=wrap;html=1;" vertex="1" parent="1">
          <mxGeometry x="540" y="380" width="120" height="60" as="geometry" />
        </mxCell>
        <mxCell id="JRqboRrcjH9pOQVbMiWF-18" value="True" style="edgeStyle=orthogonalEdgeStyle;rounded=0;orthogonalLoop=1;jettySize=auto;html=1;" edge="1" parent="1" source="JRqboRrcjH9pOQVbMiWF-12">
          <mxGeometry relative="1" as="geometry">
            <mxPoint x="200" y="500" as="targetPoint" />
          </mxGeometry>
        </mxCell>
        <mxCell id="JRqboRrcjH9pOQVbMiWF-12" value="Count neg =0" style="rounded=0;whiteSpace=wrap;html=1;" vertex="1" parent="1">
          <mxGeometry x="140" y="390" width="120" height="60" as="geometry" />
        </mxCell>
        <mxCell id="JRqboRrcjH9pOQVbMiWF-13" value="False" style="edgeStyle=orthogonalEdgeStyle;rounded=0;orthogonalLoop=1;jettySize=auto;html=1;entryX=1.003;entryY=0.381;entryDx=0;entryDy=0;entryPerimeter=0;" edge="1" parent="1" source="JRqboRrcjH9pOQVbMiWF-5" target="JRqboRrcjH9pOQVbMiWF-12">
          <mxGeometry relative="1" as="geometry" />
        </mxCell>
        <mxCell id="JRqboRrcjH9pOQVbMiWF-36" value="True" style="edgeStyle=orthogonalEdgeStyle;rounded=0;orthogonalLoop=1;jettySize=auto;html=1;" edge="1" parent="1" source="JRqboRrcjH9pOQVbMiWF-15" target="JRqboRrcjH9pOQVbMiWF-20">
          <mxGeometry relative="1" as="geometry" />
        </mxCell>
        <mxCell id="JRqboRrcjH9pOQVbMiWF-46" style="edgeStyle=orthogonalEdgeStyle;rounded=0;orthogonalLoop=1;jettySize=auto;html=1;" edge="1" parent="1" source="JRqboRrcjH9pOQVbMiWF-15">
          <mxGeometry relative="1" as="geometry">
            <mxPoint x="330" y="730" as="targetPoint" />
          </mxGeometry>
        </mxCell>
        <mxCell id="JRqboRrcjH9pOQVbMiWF-15" value="not (n%2 ==0) and n&amp;lt; -10" style="rhombus;whiteSpace=wrap;html=1;" vertex="1" parent="1">
          <mxGeometry x="80" y="504" width="240" height="80" as="geometry" />
        </mxCell>
        <mxCell id="JRqboRrcjH9pOQVbMiWF-37" value="True" style="edgeStyle=orthogonalEdgeStyle;rounded=0;orthogonalLoop=1;jettySize=auto;html=1;exitX=0.5;exitY=1;exitDx=0;exitDy=0;entryX=0.5;entryY=0;entryDx=0;entryDy=0;" edge="1" parent="1" source="JRqboRrcjH9pOQVbMiWF-16" target="JRqboRrcjH9pOQVbMiWF-21">
          <mxGeometry relative="1" as="geometry" />
        </mxCell>
        <mxCell id="JRqboRrcjH9pOQVbMiWF-47" style="edgeStyle=orthogonalEdgeStyle;rounded=0;orthogonalLoop=1;jettySize=auto;html=1;exitX=1;exitY=0.5;exitDx=0;exitDy=0;" edge="1" parent="1" source="JRqboRrcjH9pOQVbMiWF-16">
          <mxGeometry relative="1" as="geometry">
            <mxPoint x="720" y="730" as="targetPoint" />
          </mxGeometry>
        </mxCell>
        <mxCell id="JRqboRrcjH9pOQVbMiWF-16" value="n%2==0 and n&amp;gt;20" style="rhombus;whiteSpace=wrap;html=1;" vertex="1" parent="1">
          <mxGeometry x="490" y="504" width="210" height="80" as="geometry" />
        </mxCell>
        <mxCell id="JRqboRrcjH9pOQVbMiWF-23" style="edgeStyle=orthogonalEdgeStyle;rounded=0;orthogonalLoop=1;jettySize=auto;html=1;" edge="1" parent="1" source="JRqboRrcjH9pOQVbMiWF-20">
          <mxGeometry relative="1" as="geometry">
            <mxPoint x="200" y="730" as="targetPoint" />
          </mxGeometry>
        </mxCell>
        <mxCell id="JRqboRrcjH9pOQVbMiWF-20" value="count d +=1" style="rounded=0;whiteSpace=wrap;html=1;" vertex="1" parent="1">
          <mxGeometry x="140" y="630" width="120" height="60" as="geometry" />
        </mxCell>
        <mxCell id="JRqboRrcjH9pOQVbMiWF-24" style="edgeStyle=orthogonalEdgeStyle;rounded=0;orthogonalLoop=1;jettySize=auto;html=1;exitX=0.5;exitY=1;exitDx=0;exitDy=0;" edge="1" parent="1" source="JRqboRrcjH9pOQVbMiWF-21">
          <mxGeometry relative="1" as="geometry">
            <mxPoint x="595" y="730" as="targetPoint" />
          </mxGeometry>
        </mxCell>
        <mxCell id="JRqboRrcjH9pOQVbMiWF-21" value="count p +=1" style="rounded=0;whiteSpace=wrap;html=1;" vertex="1" parent="1">
          <mxGeometry x="535" y="630" width="120" height="60" as="geometry" />
        </mxCell>
        <mxCell id="JRqboRrcjH9pOQVbMiWF-25" value="End" style="ellipse;whiteSpace=wrap;html=1;aspect=fixed;" vertex="1" parent="1">
          <mxGeometry x="354" y="1040" width="80" height="80" as="geometry" />
        </mxCell>
        <mxCell id="JRqboRrcjH9pOQVbMiWF-26" value="" style="endArrow=none;html=1;rounded=0;" edge="1" parent="1">
          <mxGeometry width="50" height="50" relative="1" as="geometry">
            <mxPoint x="200" y="730" as="sourcePoint" />
            <mxPoint x="720" y="730" as="targetPoint" />
            <Array as="points">
              <mxPoint x="390" y="730" />
            </Array>
          </mxGeometry>
        </mxCell>
        <mxCell id="JRqboRrcjH9pOQVbMiWF-30" style="edgeStyle=orthogonalEdgeStyle;rounded=0;orthogonalLoop=1;jettySize=auto;html=1;" edge="1" parent="1" source="JRqboRrcjH9pOQVbMiWF-29" target="JRqboRrcjH9pOQVbMiWF-25">
          <mxGeometry relative="1" as="geometry">
            <mxPoint x="394" y="840" as="targetPoint" />
          </mxGeometry>
        </mxCell>
        <mxCell id="JRqboRrcjH9pOQVbMiWF-29" value="" style="ellipse;whiteSpace=wrap;html=1;aspect=fixed;" vertex="1" parent="1">
          <mxGeometry x="377" y="710" width="34" height="34" as="geometry" />
        </mxCell>
        <mxCell id="JRqboRrcjH9pOQVbMiWF-32" value="" style="endArrow=none;html=1;rounded=0;" edge="1" parent="1" source="JRqboRrcjH9pOQVbMiWF-40">
          <mxGeometry width="50" height="50" relative="1" as="geometry">
            <mxPoint x="70" y="730" as="sourcePoint" />
            <mxPoint x="70" y="270" as="targetPoint" />
          </mxGeometry>
        </mxCell>
        <mxCell id="JRqboRrcjH9pOQVbMiWF-34" value="" style="endArrow=none;html=1;rounded=0;" edge="1" parent="1">
          <mxGeometry width="50" height="50" relative="1" as="geometry">
            <mxPoint x="70" y="730" as="sourcePoint" />
            <mxPoint x="200" y="730" as="targetPoint" />
          </mxGeometry>
        </mxCell>
        <mxCell id="JRqboRrcjH9pOQVbMiWF-38" value="coun neg =0,&lt;div&gt;count pos =0,&lt;/div&gt;&lt;div&gt;count pari =0,&lt;/div&gt;&lt;div&gt;count disp =0&lt;/div&gt;" style="rounded=0;whiteSpace=wrap;html=1;" vertex="1" parent="1">
          <mxGeometry x="340" y="-90" width="150" height="70" as="geometry" />
        </mxCell>
        <mxCell id="JRqboRrcjH9pOQVbMiWF-39" value="i =1" style="rounded=0;whiteSpace=wrap;html=1;" vertex="1" parent="1">
          <mxGeometry x="354" width="120" height="60" as="geometry" />
        </mxCell>
        <mxCell id="JRqboRrcjH9pOQVbMiWF-48" value="i+=1" style="rounded=0;whiteSpace=wrap;html=1;" vertex="1" parent="1">
          <mxGeometry x="334" y="850" width="120" height="60" as="geometry" />
        </mxCell>
        <mxCell id="JRqboRrcjH9pOQVbMiWF-49" value="" style="endArrow=none;html=1;rounded=0;" edge="1" parent="1">
          <mxGeometry width="50" height="50" relative="1" as="geometry">
            <mxPoint x="450" y="880" as="sourcePoint" />
            <mxPoint x="800" y="880" as="targetPoint" />
          </mxGeometry>
        </mxCell>
        <mxCell id="JRqboRrcjH9pOQVbMiWF-50" value="" style="endArrow=none;html=1;rounded=0;" edge="1" parent="1">
          <mxGeometry width="50" height="50" relative="1" as="geometry">
            <mxPoint x="800" y="880" as="sourcePoint" />
            <mxPoint x="800" y="270" as="targetPoint" />
          </mxGeometry>
        </mxCell>
        <mxCell id="JRqboRrcjH9pOQVbMiWF-51" value="" style="endArrow=none;html=1;rounded=0;exitX=1;exitY=0.5;exitDx=0;exitDy=0;" edge="1" parent="1" source="JRqboRrcjH9pOQVbMiWF-4">
          <mxGeometry width="50" height="50" relative="1" as="geometry">
            <mxPoint x="750" y="320" as="sourcePoint" />
            <mxPoint x="800" y="270" as="targetPoint" />
          </mxGeometry>
        </mxCell>
        <mxCell id="JRqboRrcjH9pOQVbMiWF-52" value="" style="endArrow=none;html=1;rounded=0;" edge="1" parent="1" target="JRqboRrcjH9pOQVbMiWF-40">
          <mxGeometry width="50" height="50" relative="1" as="geometry">
            <mxPoint x="70" y="730" as="sourcePoint" />
            <mxPoint x="70" y="270" as="targetPoint" />
          </mxGeometry>
        </mxCell>
        <mxCell id="JRqboRrcjH9pOQVbMiWF-40" value="write&amp;nbsp;&lt;div&gt;pari&lt;/div&gt;&lt;div&gt;dispari&lt;/div&gt;&lt;div&gt;positivi&lt;/div&gt;&lt;div&gt;negativi&lt;/div&gt;&lt;div&gt;&lt;br&gt;&lt;/div&gt;" style="shape=parallelogram;perimeter=parallelogramPerimeter;whiteSpace=wrap;html=1;fixedSize=1;" vertex="1" parent="1">
          <mxGeometry y="310" width="140" height="90" as="geometry" />
        </mxCell>
      </root>
    </mxGraphModel>
  </diagram>
</mxfile>
